<svg width="500" height="500" viewBox="0 0 500 500" version="1.1" xmlns="http://www.w3.org/2000/svg" xmlns:xlink="http://www.w3.org/1999/xlink">
<title>part</title>
<desc>Created using Figma</desc>
<g id="Canvas" transform="matrix(2 0 0 2 0 0)">
<clipPath id="clip-0" clip-rule="evenodd">
<path d="M 1.38462e-06 1.98067e-06L 250 1.98067e-06L 250 250L 1.38462e-06 250L 1.38462e-06 1.98067e-06Z" fill="#FFFFFF"/>
</clipPath>
<g id="part" clip-path="url(#clip-0)">
<g id="Ellipse">
<use xlink:href="#path0_fill" transform="matrix(-0.5 -0.866025 0.866025 -0.5 206.112 95.4904)" fill="#5229CC"/>
</g>
<g id="Ellipse">
<use xlink:href="#path0_fill" transform="matrix(1 8.88178e-16 -8.88178e-16 1 110 210)" fill="#5229CC"/>
</g>
<g id="Ellipse">
<use xlink:href="#path0_fill" transform="matrix(-0.5 0.866025 -0.866025 -0.5 58.8878 69.5096)" fill="#5229CC"/>
</g>
<g id="center">
<use xlink:href="#path1_fill" transform="matrix(1 8.88178e-16 -8.88178e-16 1 113 113)" fill="#5229CC"/>
<mask id="mask0_outline_ins">
<use xlink:href="#path1_fill" fill="white" transform="matrix(1 8.88178e-16 -8.88178e-16 1 113 113)"/>
</mask>
<g mask="url(#mask0_outline_ins)">
<use xlink:href="#path2_stroke_2x" transform="matrix(1 8.88178e-16 -8.88178e-16 1 113 113)" fill="#5229CC"/>
</g>
</g>
<g id="Vector 2">
<use xlink:href="#path3_stroke" transform="matrix(-0.866025 -0.5 0.5 -0.866025 125 125)" fill="#5229CC"/>
</g>
<g id="Vector 2.1">
<use xlink:href="#path3_stroke" transform="matrix(-8.21225e-16 1 -1 -8.21225e-16 125 125)" fill="#5229CC"/>
</g>
<g id="Vector 2.1">
<use xlink:href="#path3_stroke" transform="matrix(0.866025 -0.5 0.5 0.866025 125 125)" fill="#5229CC"/>
</g>
</g>
</g>
<defs>
<path id="path0_fill" d="M 30 15C 30 23.2843 23.2843 30 15 30C 6.71573 30 0 23.2843 0 15C 0 6.71573 6.71573 0 15 0C 23.2843 0 30 6.71573 30 15Z"/>
<path id="path1_fill" d="M 24 12C 24 18.6274 18.6274 24 12 24C 5.37258 24 0 18.6274 0 12C 0 5.37258 5.37258 0 12 0C 18.6274 0 24 5.37258 24 12Z"/>
<path id="path2_stroke_2x" d="M 12 12L 12 36C 25.2548 36 36 25.2548 36 12L 12 12ZM 12 12L -12 12C -12 25.2548 -1.25483 36 12 36L 12 12ZM 12 12L 12 -12C -1.25483 -12 -12 -1.25483 -12 12L 12 12ZM 12 12L 36 12C 36 -1.25483 25.2548 -12 12 -12L 12 12Z"/>
<path id="path3_stroke" d="M 0 7.5L 109 7.5L 109 -7.5L 0 -7.5L 0 7.5Z"/>
</defs>
</svg>
